<svg xmlns="http://www.w3.org/2000/svg" width="500" height="500" viewBox="0 0 500 500" version="1.1">
	<path d="M 88 0.690 C 74.478 2.207, 55.474 9.531, 42.877 18.081 C 21.043 32.900, 4.835 59.380, 1.082 86.364 C -0.428 97.222, -0.428 402.778, 1.082 413.636 C 7.201 457.626, 42.374 492.799, 86.364 498.918 C 97.222 500.428, 402.778 500.428, 413.636 498.918 C 446.174 494.392, 474.374 474.097, 489.246 444.500 C 493.678 435.680, 497.878 422.463, 498.677 414.819 C 499.015 411.585, 499.676 408.700, 500.146 408.410 C 500.616 408.120, 501 336.332, 501 248.882 C 501 160.336, 500.619 90.118, 500.140 90.414 C 499.666 90.706, 499.005 88.325, 498.671 85.122 C 497.402 72.988, 490.347 55.310, 481.660 42.500 C 476.359 34.684, 465.151 23.530, 457.123 18.081 C 448.463 12.204, 434.279 5.684, 424 2.857 L 415.500 0.519 253.500 0.408 C 164.400 0.347, 89.925 0.474, 88 0.690 M 0.488 250 C 0.488 337.725, 0.606 373.612, 0.750 329.750 C 0.894 285.887, 0.894 214.112, 0.750 170.250 C 0.606 126.387, 0.488 162.275, 0.488 250 M 193.159 165.722 C 189.766 172.130, 188 181.634, 188 193.483 C 188 201.959, 187.550 206.833, 186.546 209.237 C 185.746 211.151, 184.346 217.169, 183.436 222.609 C 182.104 230.565, 181.265 233.050, 179.145 235.311 L 176.509 238.121 179.005 240.016 C 181.235 241.710, 181.359 242.141, 180.168 244.074 C 179.435 245.263, 179.210 246.576, 179.668 246.992 C 180.349 247.611, 204.473 262.902, 210.444 266.500 C 211.971 267.420, 211.979 267.853, 210.543 271.901 C 209.684 274.322, 208.687 278.812, 208.326 281.880 C 207.908 285.439, 206.315 289.996, 203.921 294.478 C 195.385 310.462, 193.486 326.235, 200 327.049 C 203.430 327.478, 204.260 326.660, 207.660 319.500 C 209.619 315.375, 211.532 312, 211.910 312 C 212.289 312, 213.181 313.611, 213.893 315.580 C 215.024 318.710, 220.056 324.463, 226.500 329.994 C 229.983 332.984, 230.894 333.144, 234.555 331.407 C 237.592 329.966, 239.515 329.841, 247.316 330.583 C 258.369 331.634, 281.401 331.286, 288.957 329.954 C 295.880 328.733, 299.891 325.018, 304.565 315.500 C 308.524 307.438, 310 300.677, 310 290.605 C 310 283.954, 310.271 283.068, 314.101 277.207 C 323.034 263.535, 341.113 252.925, 358 251.442 C 367.850 250.578, 369 250.211, 369 247.930 C 369 243.478, 353.541 240.650, 341.818 242.956 C 330.779 245.128, 312.309 254.905, 305.074 262.406 L 301.649 265.958 296.516 261.104 C 293.694 258.434, 289.948 255.507, 288.192 254.600 L 285.001 252.949 291.250 246.989 L 297.500 241.029 295.026 239.091 C 292.667 237.244, 292.632 237.064, 294.276 235.248 C 296.573 232.709, 296.458 231.779, 293.500 229 C 292.125 227.708, 291 225.605, 291 224.326 C 291 222.642, 290.430 222, 288.934 222 C 287.798 222, 286.061 221.568, 285.075 221.040 C 282.790 219.817, 279.157 211.423, 278.343 205.487 C 277.956 202.664, 276.990 200.406, 275.817 199.585 C 273.967 198.288, 273.970 198.241, 275.959 197.721 C 278.976 196.932, 278.436 195.037, 275 194.350 C 273.072 193.964, 272 193.140, 272 192.043 C 272 190.806, 270.707 190.082, 267.308 189.418 L 262.617 188.500 270.277 182.750 C 274.490 179.588, 278.134 177, 278.375 177 C 278.616 177, 278.563 178.012, 278.259 179.250 C 277.954 180.488, 277.986 181.248, 278.330 180.939 C 278.674 180.631, 279.115 179.327, 279.311 178.042 C 279.572 176.333, 280.415 175.625, 282.444 175.409 C 286.025 175.027, 286.083 174.941, 285.119 171.450 C 284.502 169.219, 283.777 168.558, 282.143 168.740 C 280.955 168.872, 273.039 172.388, 264.552 176.554 C 249.841 183.775, 248.944 184.078, 245.311 183.069 C 240.428 181.714, 234.278 181.719, 226.429 183.086 L 220.194 184.172 208.347 174.770 C 193.840 163.257, 194.314 163.540, 193.159 165.722 M 193.070 170.315 C 190.043 178.278, 188.281 193.856, 189.679 200.292 C 190.450 203.839, 190.630 203.991, 192.464 202.650 C 194.171 201.401, 194.244 200.999, 193.027 199.532 C 191.827 198.087, 191.833 197.718, 193.064 196.939 C 193.854 196.439, 195.039 196.024, 195.698 196.015 C 196.599 196.004, 196.632 195.244, 195.832 192.949 C 194.464 189.023, 195.107 188.487, 198.857 190.426 C 202.409 192.263, 204.617 192.429, 205.543 190.930 C 206.178 189.903, 196.368 169.346, 194.772 168.359 C 194.346 168.096, 193.580 168.976, 193.070 170.315 M 277.079 183.583 C 277.127 184.748, 277.364 184.985, 277.683 184.188 C 277.972 183.466, 277.936 182.603, 277.604 182.271 C 277.272 181.939, 277.036 182.529, 277.079 183.583 M 252 222.301 C 250.625 222.993, 248.909 224.790, 248.188 226.295 C 244.564 233.854, 254.562 240.529, 260.545 234.545 C 263.605 231.486, 263.679 227.859, 260.750 224.637 C 257.857 221.455, 255.130 220.727, 252 222.301 M 206 222.689 C 200.348 224.845, 199.017 232.295, 203.635 235.927 C 207.130 238.677, 210.546 238.545, 213.545 235.545 C 216.461 232.630, 216.766 228.127, 214.250 225.153 C 212.372 222.934, 208.438 221.758, 206 222.689 M 252.992 224.509 C 252.048 225.647, 251.988 226.388, 252.775 227.175 C 254.292 228.692, 257.217 227.363, 256.824 225.336 C 256.375 223.020, 254.554 222.627, 252.992 224.509 M 205.364 225.493 C 205.018 226.396, 205.214 227.614, 205.800 228.200 C 207.324 229.724, 210.210 228.331, 209.812 226.265 C 209.369 223.963, 206.165 223.407, 205.364 225.493 M 228.482 237.030 C 228.093 237.659, 228.223 238.623, 228.772 239.172 C 230.228 240.628, 234.500 239.754, 234.500 238 C 234.500 236.186, 229.501 235.380, 228.482 237.030 M 218 244.865 C 218 246.990, 221.991 250, 224.809 250 C 226.354 250, 228.479 249.370, 229.532 248.600 C 231.174 247.400, 231.733 247.400, 233.446 248.600 C 236.418 250.682, 241.655 250.345, 244.083 247.917 C 245.229 246.771, 245.894 245.560, 245.560 245.227 C 245.227 244.894, 244.264 245.606, 243.420 246.810 C 241.481 249.579, 237.131 249.678, 233.764 247.029 C 231.270 245.067, 231.249 245.067, 229.474 247.029 C 226.907 249.865, 222.586 249.560, 220.073 246.365 C 218.933 244.916, 218 244.241, 218 244.865" stroke="none" fill="black" fill-rule="evenodd"/>
</svg>